<?xml version="1.0" encoding="UTF-8" standalone="no"?>
<svg width="32px" height="32px" fill="#ffffff" viewBox="0 0 32 32" version="1.1" xmlns="http://www.w3.org/2000/svg" xmlns:xlink="http://www.w3.org/1999/xlink">
    <!-- Generator: Sketch 44.1 (41455) - http://www.bohemiancoding.com/sketch -->
    <title>Share 2</title>
    <desc>Created with Sketch.</desc>
    <defs></defs>
    <g id="Page-2-Copy" stroke="#ffffff" stroke-width="1" fill="#ffffff" >
        <g id="42" stroke="#ffffff" transform="translate(16.000000, 16.000000) scale(-1, 1) translate(-16.000000, -16.000000)"  fill="#ffffff">
            <path d="M14.0068355,1.08977479 C14.0061822,0.164875734 12.9319728,-0.299057169 12.3015282,0.35328133 L0.979800902,12.0681856 C0.587581762,12.4740256 0.586775495,13.1339589 0.978001709,13.5408341 L12.2917102,25.307091 C12.9216751,25.9622544 13.998817,25.498241 13.998817,24.5716999 L13.9988177,17.1611319 C13.9988177,16.5867557 13.5511025,16.1211319 12.9988177,16.1211319 C12.446533,16.1211319 11.9988177,16.5867557 11.9988177,17.1611319 L11.998817,24.5716999 L13.7059238,23.8363089 L2.39221527,12.070052 L2.39041608,13.5427006 L13.7121433,1.82779626 L12.006836,1.0913028 L11.9988183,7.89410615 C11.999224,8.46848213 12.447268,8.93376381 12.9995526,8.93334186 C13.5518372,8.93291991 13.9992235,8.46695412 13.9988177,7.89257814 L14.0068355,1.08977479 Z M19,8.9832437 C26,9 29.9700917,13 30,18 L30.0000313,31.007909 L31.98428,30.8233848 C31.9110317,30.4151708 31.7394331,29.7368305 31.4374543,28.8765201 C30.9375498,27.452337 29,15.9932865 20.1003417,15.9932865 C19.8677584,15.9932865 19.8677584,15.9932865 19.6331683,15.9932866 C19.2827386,15.9932866 19.2827386,15.9932866 18.9389983,15.9932867 C18.4265775,15.9932867 13.5572663,15.9932865 13.0999756,15.9932865 C12.5476909,15.9932866 12.0999757,16.4410018 12.0999757,16.9932866 C12.0999757,17.5455713 12.547691,17.9932866 13.0999757,17.9932865 C13.5572666,17.9932865 18.4265778,17.9932867 18.9389986,17.9932867 C19.2827388,17.9932866 19.2827388,17.9932866 19.6331685,17.9932866 C19.8677585,17.9932865 19.8677585,17.9932865 20.1003417,17.9932865 C26.9212079,17.9932865 29.1065722,28.274685 29.5503335,29.5389211 C29.705225,29.980193 29.8269813,30.3884711 29.9190352,30.7523662 C29.9726221,30.9641986 30.0036601,31.1094047 30.01572,31.1766152 C30.2320349,32.3821419 32.0096555,32.216833 31.9999687,30.992091 C31.9999687,30.992091 31.9880913,25.7254461 31.9940456,18 C32,10.2745539 26,6.99982315 19.041523,6.99026947 C12.0830461,6.98071579 13.2673082,6.98012285 13.0016505,6.98008578 C12.4493657,6.9800858 12.0016505,7.42780106 12.0016505,7.98008581 C12.0016505,8.53237056 12.4493658,8.9800858 13.0016505,8.98008578 C13.2669171,8.98012282 18.978492,8.98319221 19,8.9832437 Z" id="Rectangle-449" stroke="#ffffff"></path>
        </g>
    </g>
</svg>